<?xml version="1.0" encoding="UTF-8"?>
<svg version="1.1" xmlns="http://www.w3.org/2000/svg" width="512" height="512">
<path d="M0 0 C0.33 0.99 0.66 1.98 1 3 C0.45472656 3.59425781 -0.09054687 4.18851563 -0.65234375 4.80078125 C-4.66574885 9.2120966 -8.57816273 13.66167703 -12.3125 18.3125 C-15.72422523 22.53398899 -19.29319816 26.54071347 -23 30.5 C-27.42087216 35.22640494 -31.60065768 40.07364461 -35.65625 45.12109375 C-38.37939714 48.46602616 -41.18247655 51.73458519 -44 55 C-47.53627786 59.10214869 -51.02863985 63.22802683 -54.4375 67.4375 C-72.73554095 89.93021821 -92.42753461 112.93687826 -116 130 C-117.0415625 130.77472656 -118.083125 131.54945313 -119.15625 132.34765625 C-144.06343201 150.31905119 -172.70028105 159.9718895 -203.56445312 155.17749023 C-225.75445396 151.12396491 -242.77991845 138.84677946 -255.51171875 120.6640625 C-267.03287383 103.84517523 -267.03287383 103.84517523 -266 93 C-264.5 90.125 -264.5 90.125 -262 88 C-256.74423455 86.44098643 -251.50534537 85.58663165 -246.08618164 84.81030273 C-202.87657139 78.45835821 -165.54075236 57.30004391 -129.87158203 33.20385742 C-103.98137283 15.72895095 -76.2022312 3.18484861 -45 -1 C-44.04609375 -1.13019531 -43.0921875 -1.26039063 -42.109375 -1.39453125 C-27.97188419 -2.98182438 -14.0262983 -1.96613944 0 0 Z " fill="#000000" transform="translate(442,248)"/>
<path d="M0 0 C8.19184992 8.76337433 8.88767079 19.31782948 9.05078125 30.8359375 C8.6875 33.875 8.6875 33.875 7.54223633 35.58984375 C4.78638762 37.49938536 2.92843254 36.92077391 -0.3515625 36.4765625 C-2.17022827 36.25057373 -2.17022827 36.25057373 -4.02563477 36.02001953 C-5.96200806 35.76260986 -5.96200806 35.76260986 -7.9375 35.5 C-28.54903169 33.0124723 -47.73337022 33.06212418 -65.5625 45.0625 C-73.89605988 53.58545897 -77.10707789 63.7608266 -77.40625 75.578125 C-76.83945092 89.12462301 -73.33547329 101.00015966 -66.60546875 112.65625 C-63.99053434 119.16593567 -67.11730938 126.47133329 -68.75 133.0625 C-72.42130661 148.29848768 -74.07855034 163.26613195 -75.3125 178.875 C-78.3056743 176.05866532 -80.53845291 173.20769724 -82.75 169.75 C-86.17655102 164.5183343 -89.75747929 159.43117678 -93.4375 154.375 C-100.51710664 144.6250697 -107.47459971 134.79606909 -114.3125 124.875 C-114.90208496 124.0200293 -115.49166992 123.16505859 -116.09912109 122.28417969 C-154.4418434 66.41963973 -154.4418434 66.41963973 -152.3125 36.875 C-150.47684877 28.00718489 -145.85450064 20.91207624 -138.3125 15.875 C-125.54313122 9.24691122 -112.31692165 7.55095697 -98.125 7 C-83.52279916 6.29841196 -69.59159494 4.04759729 -55.3125 0.875 C-52.60889344 0.29350853 -49.90411807 -0.28201561 -47.19848633 -0.85400391 C-45.6421197 -1.18517216 -44.08707688 -1.5226733 -42.53393555 -1.86865234 C-29.37748718 -4.7467688 -11.84545052 -7.59896826 0 0 Z " fill="#000000" transform="translate(241.3125,106.125)"/>
<path d="M0 0 C1.36523437 1.51782227 1.36523437 1.51782227 2.59375 3.31640625 C3.06022949 3.98905518 3.52670898 4.6617041 4.00732422 5.35473633 C4.49990723 6.08329834 4.99249023 6.81186035 5.5 7.5625 C6.57528103 9.11995725 7.65080852 10.67724438 8.7265625 12.234375 C9.2721582 13.03037109 9.81775391 13.82636719 10.37988281 14.64648438 C12.84405245 18.22614008 15.36108771 21.76770282 17.875 25.3125 C18.87416071 26.7288403 19.87285009 28.14551321 20.87109375 29.5625 C22.47152842 31.83388809 24.07368409 34.1039843 25.68017578 36.37109375 C36.50005109 51.64046337 46.99960406 67.09283672 56.5625 83.1875 C57.15272949 84.17496216 57.15272949 84.17496216 57.75488281 85.18237305 C65 97.57806985 65 97.57806985 65 102 C63.57421875 103.26171875 63.57421875 103.26171875 61.6875 104.6875 C56.65636354 108.9242465 54.89622115 113.43873788 54.3125 119.9375 C54.70495919 134.20339162 66.93566369 149.00317777 75 160 C56.58642364 159.91147319 38.29271163 148.81968751 25 137 C23.92564697 136.05809814 23.92564697 136.05809814 22.82958984 135.09716797 C15.77066429 128.84625047 9.16001953 122.20653872 2.60449219 115.43310547 C-11.85323933 100.52451967 -26.40327756 93.03858623 -46.6484375 89.33203125 C-59.13638155 87.01685061 -71.08060847 82.41290272 -79 72 C-83.10586113 65.7147815 -84.57050512 59.67467818 -83.4375 52.1875 C-80.1941654 38.26643394 -69.29040842 29.43893352 -57.75 22.0625 C-43.91728017 13.56372521 -28.98669838 6.8907749 -13.8125 1.1875 C-12.88614746 0.83155762 -11.95979492 0.47561523 -11.00537109 0.10888672 C-10.14379395 -0.20161621 -9.2822168 -0.51211914 -8.39453125 -0.83203125 C-7.64018799 -1.10764893 -6.88584473 -1.3832666 -6.10864258 -1.66723633 C-3.36093952 -2.10084977 -2.28136365 -1.54746747 0 0 Z " fill="#000000" transform="translate(111,225)"/>
<path d="M0 0 C-0.66386719 0.43570313 -1.32773438 0.87140625 -2.01171875 1.3203125 C-11.72104151 7.84428385 -11.72104151 7.84428385 -17 18 C-17.64110709 23.5867904 -17.17198092 27.28109868 -13.91796875 31.9296875 C-0.02074639 46.93076256 24.65184267 55.06172602 44.56396484 56.13867188 C77.80785629 57.28637095 110.85126555 48.14381539 137.26171875 27.20703125 C139 26 139 26 142 26 C141.82286469 27.05030396 141.82286469 27.05030396 141.64215088 28.12182617 C140.70669129 33.69785429 139.79735178 39.27643519 138.92871094 44.86328125 C137.99502694 50.79613751 136.97454884 56.70831196 135.89063644 62.61521912 C135.24341636 66.15893508 134.63323584 69.70124193 134.10400391 73.26464844 C130.65234698 96.25517007 130.65234698 96.25517007 124.6317749 102.42819214 C119.36965458 106.28951573 113.72104533 108.75004239 107.61383057 110.9662323 C103.65126595 112.53342314 100.17743694 114.73424065 96.625 117.0625 C95.35418711 117.87112588 94.08335642 118.67972379 92.8125 119.48828125 C88.01691256 122.61859598 83.31118509 125.87950827 78.61181641 129.15185547 C73.54213082 132.67102303 68.36412492 135.94399614 63 139 C60.6197242 135.92092764 58.52960395 132.71760452 56.4375 129.4375 C43.35273039 109.83422291 25.83276552 99.08630172 3.6875 92.4375 C-13.68291828 87.17512044 -26.04541312 77.36230761 -35.27734375 61.4765625 C-41.54636159 48.82480314 -45.36302874 34.3291511 -41.80859375 20.33203125 C-39.62191964 14.02553636 -36.65633972 8.54995273 -30.8125 5.0625 C-22.98017574 1.36208637 -8.22347773 -4.11173886 0 0 Z " fill="#000000" transform="translate(217,151)"/>
<path d="M0 0 C5.41473159 5.49875329 8.75761692 11.59069916 12.20239258 18.3972168 C21.99584618 37.57703019 37.27280691 54.25430041 53.99414062 67.60888672 C55.813459 69.0640177 57.62558784 70.52784626 59.4375 71.9921875 C60.7549526 73.05370289 62.07265888 74.11490351 63.390625 75.17578125 C64.00421875 75.67102295 64.6178125 76.16626465 65.25 76.67651367 C68.23737869 79.0703601 71.23892635 81.34658928 74.41015625 83.4921875 C79.5264215 87.11507193 81.95700449 92.21983847 83.0859375 98.33984375 C83.71038011 111.12010253 77.23659711 122.48090093 70.640625 132.92578125 C68.8230175 134.74338875 65.95772574 134.31611115 63.5 134.50390625 C61.56664795 134.66342773 61.56664795 134.66342773 59.59423828 134.82617188 C58.90783264 134.88264893 58.221427 134.93912598 57.51422119 134.99731445 C41.34334776 136.35631293 25.92797984 138.88958661 10.58154297 144.35742188 C8.640625 144.92578125 8.640625 144.92578125 5.640625 144.92578125 C6.87871309 136.30743456 8.42226295 127.81410542 10.27734375 119.30859375 C10.77717797 116.96755147 11.27651258 114.62640248 11.77539062 112.28515625 C12.5537144 108.65018452 13.3356683 105.01612221 14.1262207 101.38378906 C14.89560872 97.84008536 15.65008367 94.29346707 16.40234375 90.74609375 C16.6418425 89.66369415 16.88134125 88.58129456 17.12809753 87.46609497 C18.28681163 81.9468627 19.1286161 77.42235925 17.640625 71.92578125 C15.26561709 69.04937509 15.26561709 69.04937509 12.640625 66.92578125 C12.310625 66.59578125 11.980625 66.26578125 11.640625 65.92578125 C5.58030498 65.30738125 1.6815647 66.82366451 -3.359375 69.92578125 C-4.060625 70.52390625 -4.761875 71.12203125 -5.484375 71.73828125 C-7.359375 72.92578125 -7.359375 72.92578125 -9.984375 72.98828125 C-19.00430924 70.14867232 -25.48574163 65.00506651 -30.359375 56.92578125 C-32.31430259 52.91502659 -33.8074758 48.82022177 -35.0546875 44.5390625 C-36.94722623 38.13271013 -39.61595376 33.29877853 -45.38671875 29.640625 C-57.89093003 23.14402361 -70.52288466 25.89691716 -83.359375 29.92578125 C-85.3618612 30.58494243 -87.3627534 31.2490637 -89.359375 31.92578125 C-89.52953125 30.81460938 -89.6996875 29.7034375 -89.875 28.55859375 C-91.47378217 18.58107106 -93.78033193 9.98211087 -98.359375 0.92578125 C-71.12320823 -20.28579563 -26.99712177 -23.7342246 0 0 Z " fill="#000000" transform="translate(350.359375,101.07421875)"/>
<path d="M0 0 C19.41275167 6.02046515 43.68618758 16.66563246 53.96484375 35.21875 C56.1084848 40.97826858 56.26859006 47.3800334 54.2265625 53.20703125 C53.25 55 53.25 55 51 58 C50.46375 58.825 49.9275 59.65 49.375 60.5 C38.9408748 71.48328969 26.25757039 73.71528793 11.9375 75.9375 C-0.75258661 77.91816864 -10.58693693 81.24247711 -21 89 C-21.99 89.721875 -22.98 90.44375 -24 91.1875 C-27.65849329 94.33480656 -30.50612755 98.21164331 -33.51171875 101.96484375 C-37.78850017 107.18157713 -42.37891957 112.08883715 -47 117 C-47.72832031 117.7940625 -48.45664062 118.588125 -49.20703125 119.40625 C-61.65910541 132.52828733 -78.50844512 143.39935207 -96.99609375 144.37109375 C-115.83022466 144.79886776 -129.8646513 140.46513177 -146 131 C-146 130.34 -146 129.68 -146 129 C-144.99324219 128.68289063 -143.98648437 128.36578125 -142.94921875 128.0390625 C-111.23671395 117.67055846 -87.00781046 97.03303934 -63.6875 73.8125 C-62.93460693 73.06427979 -62.18171387 72.31605957 -61.40600586 71.54516602 C-56.73279809 66.85851612 -52.29887765 62.03079722 -48 57 C-47.06152671 55.91768357 -46.1227415 54.8356375 -45.18359375 53.75390625 C-36.67299177 43.88117797 -28.39967536 33.81939281 -20.14453125 23.73291016 C-13.56375584 15.69491378 -6.99804963 7.68081545 0 0 Z " fill="#000000" transform="translate(429,282)"/>
<path d="M0 0 C3.01994982 1.44788905 5.18612206 2.94603871 7.625 5.25 C15.61674622 12.30498475 23.85719422 15.81111887 33.97265625 18.79296875 C54.84801931 24.95787165 70.985577 35.67800492 83 54 C86 59.54464286 86 59.54464286 86 62 C65.41474063 72.5450375 45.02716021 81.57284176 22.4375 86.875 C21.08156738 87.19827271 21.08156738 87.19827271 19.69824219 87.52807617 C14.00534368 88.79860559 8.83182037 89.20130141 3 89 C-12.17836733 60.80303302 -7.73365823 29.72376301 0 0 Z " fill="#000000" transform="translate(184,234)"/>
<path d="M0 0 C3.52457683 3.80626816 4.92801157 7.23592611 6.375 12.1875 C9.92790613 23.50309291 15.41389968 33.3971421 26.2734375 39.21875 C26.84320313 39.4765625 27.41296875 39.734375 28 40 C27 43 27 43 25.21264648 44.10327148 C24.43993408 44.43915283 23.66722168 44.77503418 22.87109375 45.12109375 C22.00863037 45.4975 21.14616699 45.87390625 20.25756836 46.26171875 C19.3269458 46.64972656 18.39632324 47.03773438 17.4375 47.4375 C16.48818604 47.83710938 15.53887207 48.23671875 14.56079102 48.6484375 C2.6569755 53.53123314 -9.07090971 56.51026173 -22 57 C-20.05119657 52.94234648 -17.6958185 49.17046284 -15.33984375 45.33984375 C-12.47808766 40.34219973 -12.54519548 35.61211614 -13 30 C-15.02007 23.10799646 -19.30506661 17.32889124 -25.3984375 13.48828125 C-30.43481948 10.90810402 -35.66665761 8.8765464 -41 7 C-32.73417623 -2.41919453 -10.45783325 -7.77633755 0 0 Z " fill="#000000" transform="translate(301,140)"/>
<path d="M0 0 C6.18117771 5.18526116 6.18117771 5.18526116 6.75390625 9.12890625 C7.04230159 15.49578789 5.55520877 19.36875342 1.48046875 24.24609375 C-3.25327613 29.32452879 -8.67639133 33.04534184 -15.78125 33.33984375 C-21.25674547 32.96799346 -25.11240241 31.50736909 -29.51953125 28.24609375 C-31.58203125 25.24609375 -31.58203125 25.24609375 -32.51953125 22.24609375 C-31.70703125 19.87109375 -31.70703125 19.87109375 -30.51953125 18.24609375 C-26.81468626 18.09789995 -23.92655464 18.1077058 -20.39453125 19.30859375 C-17.2362929 20.33845408 -15.6510309 20.23027935 -12.51953125 19.24609375 C-11.16334626 18.1207527 -11.16334626 18.1207527 -11.45703125 15.18359375 C-11.47765625 14.21421875 -11.49828125 13.24484375 -11.51953125 12.24609375 C-19.12470853 8.81630792 -26.58385028 6.44267186 -34.76953125 9.43359375 C-38.39951095 11.82608037 -41.01159511 13.94971021 -41.984375 18.34765625 C-42.23690901 20.30565966 -42.38599227 22.27639374 -42.51953125 24.24609375 C-47.04972478 23.69342689 -49.95778039 21.9140639 -53.70703125 19.37109375 C-54.75246094 18.67242187 -55.79789063 17.97375 -56.875 17.25390625 C-59.51953125 15.24609375 -59.51953125 15.24609375 -61.51953125 12.24609375 C-61.51953125 7.74855774 -61.09252986 5.84704351 -57.95703125 2.55859375 C-42.9202502 -8.35114715 -15.71003963 -10.93613612 0 0 Z " fill="#000000" transform="translate(271.51953125,162.75390625)"/>
</svg>
